<svg id="Timeline" xmlns="http://www.w3.org/2000/svg" viewBox="0 0 775.23 840"><defs><style>.cls-1{font-size:18px;fill:#606167;}.cls-1,.cls-5,.cls-7{font-family:'Open Sans', sans-serif;}.cls-2{fill:#9cd0dc;}.cls-3{fill:#fe3f43;stroke:#caebf2;stroke-width:5px;}.cls-4,.cls-8,.cls-9{fill:#fff;}.cls-5,.cls-7{font-size:15px;}.cls-5{fill:#606167;}.cls-6{white-space:pre;}.cls-7{fill:#606167;}.cls-8{font-size:48px;}.cls-8,.cls-9{font-family:FontAwesome;}.cls-9{font-size:45px;}</style></defs><title>UXtimeline2</title><text class="cls-1" transform="translate(434.57 69.35) scale(0.98 1)">Bachelor of Psychology</text><path class="cls-2" d="M-14.94-241.88v-2c0-14.94-11.85-27-26.46-27.05h-1.92v-46.73h3.84v42.86c15.2,1,27.37,13.4,28.33,28.95H225.7v3.93H-14.94Z" transform="translate(430.22 324.87)"/><ellipse class="cls-2" cx="388.82" cy="6.73" rx="6.59" ry="6.73"/><ellipse class="cls-2" cx="657.57" cy="81.02" rx="5.94" ry="6.08"/><ellipse class="cls-3" cx="386.82" cy="82.02" rx="19.24" ry="19.67"/><path class="cls-2" d="M340.25-242.41c0,29.71-23.56,53.79-52.62,53.8l4.49,1.63-1.32,3.81-20.75-7.46,20.75-7.46,1.32,3.81-4.49,1.63c26.88,0,48.62-22.28,48.67-49.76h4Z" transform="translate(430.22 324.87)"/><path class="cls-3" d="M288.64-204.77c-21.44,0-38.8-17.74-38.8-39.65s17.37-39.66,38.8-39.66,38.79,17.76,38.78,39.66S310.05-204.77,288.64-204.77Z" transform="translate(430.22 324.87)"/><path class="cls-4" d="M-48.59-253c4.73,0,5.06,5.36,5.06,10,0,4.38,0,10.36-5,10.36s-5.08-5.47-5.08-10.61C-53.64-247.77-53.26-253-48.59-253Zm0.05,19.27c3.36,0,3.36-4.83,3.36-9.07s0.06-9.08-3.36-9.08S-52-247.27-52-242.21C-52-238.7-52-233.76-48.53-233.76Z" transform="translate(430.22 324.87)"/><path class="cls-4" d="M-34.6-252.66v20h-1.52V-250l-3.18,1.73v-1.54a9.74,9.74,0,0,0,3.63-2.85h1.07Z" transform="translate(430.22 324.87)"/><g id="Pupils"><path class="cls-4" d="M272.18-231.73l5.67,1.39L272.38-229,258-232.51c0-7.54,7-14.78,14.33-14.78a12.53,12.53,0,0,1,5.07,1.14,18.34,18.34,0,0,0-6.2,13.21v1Zm6.17-30.07a8.08,8.08,0,0,0-6-2.65,8.32,8.32,0,0,0-8.23,8.42,8.33,8.33,0,0,0,8.23,8.43,8.24,8.24,0,0,0,7.72-5.5,10.71,10.71,0,0,1-2-6.26A12,12,0,0,1,278.36-261.8Z" transform="translate(430.22 324.87)"/><path class="cls-4" d="M299.06-259.38a10.85,10.85,0,0,0-.28-2.42,8.12,8.12,0,0,1,6-2.65A8.34,8.34,0,0,1,313-256a8.34,8.34,0,0,1-8.24,8.43,8.24,8.24,0,0,1-7.72-5.51A10.75,10.75,0,0,0,299.06-259.38Zm20,26.86c0-7.54-7-14.78-14.32-14.78a12.59,12.59,0,0,0-5.08,1.14,18.31,18.31,0,0,1,6.21,13.21v1l-0.95.23-5.66,1.39,5.48,1.34Z" transform="translate(430.22 324.87)"/><path class="cls-4" d="M288.57-229l-16.09-3.95c0-8.47,7.82-16.6,16.09-16.6s16.11,8.13,16.11,16.6Zm0-39.84a9.36,9.36,0,0,0-9.26,9.46,9.37,9.37,0,0,0,9.26,9.46,9.37,9.37,0,0,0,9.26-9.46A9.36,9.36,0,0,0,288.57-268.84Z" transform="translate(430.22 324.87)"/></g><text class="cls-5" transform="translate(434.57 108.58) scale(0.98 1)">I have a degree in cognitive <tspan class="cls-6"><tspan x="0" y="20">psychology.  I’m fascinated by how </tspan></tspan><tspan x="0" y="40">the brain works and how we </tspan><tspan x="0" y="60">perceive and retain information.</tspan></text><path class="cls-2" d="M-313.94,341.95V338H-76.1a30.71,30.71,0,0,1,28.44-28.95v-54a30.76,30.76,0,0,1-28.5-30.92h3.86a26.84,26.84,0,0,0,26.57,27h1.93v61.74h-1.93a26.84,26.84,0,0,0-26.57,27v2H-313.94Z" transform="translate(430.22 324.87)"/><ellipse class="cls-2" cx="114.63" cy="664.85" rx="5.97" ry="6.08"/><ellipse class="cls-2" cx="355.98" cy="549.01" rx="5.97" ry="6.08"/><ellipse class="cls-3" cx="386.49" cy="664.85" rx="19.24" ry="19.67"/><path class="cls-4" d="M-49.7,329.84c4.73,0,5.05,5.36,5.05,10,0,4.38,0,10.36-5,10.36s-5.08-5.47-5.08-10.61C-54.75,335.09-54.37,329.84-49.7,329.84Zm0.05,19.27c3.36,0,3.36-4.83,3.36-9.08s0.06-9.08-3.36-9.08-3.47,4.63-3.47,9.69C-53.12,344.17-53.09,349.11-49.65,349.11Z" transform="translate(430.22 324.87)"/><path class="cls-4" d="M-34.75,335.29c-0.16-1.11-.16-4.32-2.57-4.32-2.73,0-3.68,2.79-3.68,8.21h0.05a4.32,4.32,0,0,1,3.8-2.38A4.19,4.19,0,0,1-34,338.25c0.71,0.89,1.31,2.24,1.31,4.89,0,1.34.06,7-4.75,7s-5-5.95-5-10.53c0-5,.32-9.79,5.13-9.79,3.71,0,3.93,4.36,4.07,5.5h-1.5Zm-2.65,13.65c2.71,0,3.06-3.88,3.06-5.83,0-3.1-.84-5.14-2.92-5.14-2.71,0-3.44,3.18-3.44,4.89C-40.71,344.05-40.68,348.94-37.4,348.94Z" transform="translate(430.22 324.87)"/><path class="cls-2" d="M-426.38,339.41c0,29.71,23.56,53.8,52.63,53.8l-4.49,1.62,1.32,3.81,20.75-7.46-20.75-7.46-1.32,3.81,4.49,1.63c-26.88,0-48.62-22.27-48.67-49.75h-4Z" transform="translate(430.22 324.87)"/><path class="cls-3" d="M-373.74,379.61c-21.43,0-38.8-17.75-38.8-39.65s17.37-39.66,38.79-39.66,38.8,17.75,38.8,39.66S-352.32,379.61-373.74,379.61Z" transform="translate(430.22 324.87)"/><g id="Pupils-2" data-name="Pupils"><path class="cls-4" d="M-373.77,367.22l-22.72-5.58c0-12,11-23.44,22.72-23.44S-351,349.69-351,361.65Zm0-56.26a13.22,13.22,0,0,0-13.07,13.37,13.23,13.23,0,0,0,13.07,13.37,13.23,13.23,0,0,0,13.08-13.37A13.22,13.22,0,0,0-373.77,311Z" transform="translate(430.22 324.87)"/></g><text class="cls-7" transform="translate(127.14 687.07) scale(0.98 1)">I transitioned into UX design <tspan x="0" y="20">because I recognize the need for </tspan><tspan class="cls-6"><tspan x="0" y="40">both qualitative  and quantitative </tspan><tspan x="0" y="60">research.  I also love having an active </tspan></tspan><tspan x="0" y="80">role in designing a better solution. </tspan><tspan x="0" y="100">UX design is the perfect fit for my </tspan><tspan x="0" y="120">analytical, artistic and technical skills. </tspan></text><text class="cls-1" transform="translate(127.14 653.05) scale(0.98 1)">UX Design</text><path class="cls-2" d="M-14.22,227v-2c0-14.94-11.85-27-26.46-27.05h-1.92V136.26h1.92c14.62,0,26.43-12.11,26.46-27h3.85c0,16.45-12.55,29.9-28.39,30.92v54c15.2,1,27.37,13.4,28.33,28.95H226.41V227H-14.22Z" transform="translate(430.22 324.87)"/><ellipse class="cls-2" cx="658.28" cy="549.92" rx="5.94" ry="6.08"/><ellipse class="cls-2" cx="417.92" cy="434.08" rx="5.95" ry="6.08"/><ellipse class="cls-3" cx="388.54" cy="549.92" rx="19.24" ry="19.67"/><path class="cls-4" d="M-47.78,214.89c4.73,0,5.06,5.36,5.06,10,0,4.39,0,10.36-5,10.36s-5.08-5.47-5.08-10.61C-52.83,220.14-52.45,214.89-47.78,214.89Zm0.06,19.26c3.36,0,3.36-4.83,3.36-9.07s0.05-9.08-3.36-9.08-3.47,4.64-3.47,9.69C-51.19,229.21-51.16,234.15-47.72,234.15Z" transform="translate(430.22 324.87)"/><path class="cls-4" d="M-31.41,215.14v1.45l-7.29,0,0,6.9h0.17A4.78,4.78,0,0,1-35,222c3.8,0,4.45,3.75,4.45,6.26,0,3-1.09,6.95-5.22,6.95-3,0-4.64-2.43-4.75-5.81H-39c0.06,1.93,1.1,4.75,3.42,4.75,3.5,0,3.39-5.31,3.39-6.11s0-4.69-3.17-4.69A4.31,4.31,0,0,0-39,225.64h-1.35l0.47-10.47Z" transform="translate(430.22 324.87)"/><path class="cls-2" d="M341,225.48c0,29.71-23.56,53.79-52.62,53.8l4.49,1.63-1.32,3.81-20.75-7.46,20.75-7.46,1.32,3.81-4.49,1.63c26.88,0,48.62-22.28,48.67-49.76h4Z" transform="translate(430.22 324.87)"/><path class="cls-3" d="M287.35,263.14c-21.44,0-38.8-17.76-38.8-39.66s17.37-39.66,38.79-39.66,38.79,17.75,38.79,39.66S308.76,263.14,287.35,263.14Z" transform="translate(430.22 324.87)"/><text class="cls-7" transform="translate(434.57 572.94) scale(0.98 1)">Being a strong proponent of <tspan x="0" y="20">data-driven design I gravitated </tspan><tspan class="cls-6"><tspan x="0" y="40">towards web analytics.  I have lots of </tspan></tspan><tspan x="0" y="60">experience helping organizations </tspan><tspan x="0" y="80">define and measure key </tspan><tspan x="0" y="100">performance metrics and usability.</tspan></text><text class="cls-1" transform="translate(434.57 537.41) scale(0.98 1)">Web and Data Analytics</text><path class="cls-2" d="M-315.48,108.14v-3.93H-77.17a30.75,30.75,0,0,1,28.5-29v-54A30.78,30.78,0,0,1-77.23-9.66h3.87A26.88,26.88,0,0,0-46.74,17.39h1.93V79.13h-1.93a26.88,26.88,0,0,0-26.62,27.05v2H-315.48Z" transform="translate(430.22 324.87)"/><ellipse class="cls-2" cx="113.08" cy="431.05" rx="5.98" ry="6.08"/><ellipse class="cls-2" cx="354.92" cy="315.21" rx="5.98" ry="6.08"/><ellipse class="cls-3" cx="388.49" cy="431.05" rx="19.24" ry="19.67"/><path class="cls-4" d="M-47.28,96c4.73,0,5.06,5.36,5.06,10,0,4.38,0,10.36-5,10.36s-5.08-5.47-5.08-10.61C-52.33,101.27-51.95,96-47.28,96Zm0.06,19.27c3.36,0,3.36-4.83,3.36-9.08s0.05-9.08-3.36-9.08-3.47,4.64-3.47,9.69C-50.69,110.34-50.66,115.28-47.22,115.28Z" transform="translate(430.22 324.87)"/><path class="cls-4" d="M-32,96.32l0,13.32,0.82,0.05v1.4H-32v5.22h-1.5V111.1h-7.41v-1.4l7.76-13.37H-32Zm-1.5,13.32V99.53l0.11,0-5.9,10.19Z" transform="translate(430.22 324.87)"/><path class="cls-2" d="M-427.38,105.61c0,29.71,23.56,53.8,52.63,53.8l-4.49,1.63,1.32,3.81,20.75-7.46-20.75-7.46-1.32,3.81,4.49,1.63c-26.88-.05-48.62-22.28-48.67-49.76h-4Z" transform="translate(430.22 324.87)"/><path class="cls-3" d="M-374.74,144.26c-21.43,0-38.8-17.75-38.8-39.65S-396.18,65-374.75,65-336,82.71-336,104.61-353.33,144.26-374.74,144.26Z" transform="translate(430.22 324.87)"/><path id="Computer" class="cls-4" d="M-358.65,126.24a1.86,1.86,0,0,1-.28.12,2.65,2.65,0,0,0-.36.07s-0.33,0-.89.07l-2.52.17c-1.13.05-2.57,0.11-4.34,0.16s-5.24.07-7.7,0.07-5.93,0-7.7-.07-3.21-.1-4.35-0.16l-2.51-.17c-0.55-.06-0.85-0.07-0.9-0.07a2.43,2.43,0,0,0-.36-0.07l-0.27-.12a0.52,0.52,0,0,1-.18-0.16,0.33,0.33,0,0,1-.09-0.16c0.06,0.42.12,0.15,0.17,0.58a0.53,0.53,0,0,0,.08.17,0.55,0.55,0,0,0,.19.15,1.14,1.14,0,0,0,.26.13,2.13,2.13,0,0,0,.35.07l0.89,0.09c0.55,0.05,1.37.1,2.48,0.17s2.55,0.12,4.3.16,5.2,0.09,7.63.09,5.87,0,7.63-.09,3.17-.1,4.29-0.16,1.94-.12,2.48-0.17l0.89-.09a2.07,2.07,0,0,0,.35-0.07,1.85,1.85,0,0,0,.28-0.13,0.49,0.49,0,0,0,.17-0.15,0.39,0.39,0,0,0,.08-0.17c0.05-.43.11-0.16,0.17-0.58a0.29,0.29,0,0,1-.08.16A0.59,0.59,0,0,1-358.65,126.24Zm-21.65-5.52h-6.06l-0.42,0-0.38.06-0.3.12a0.85,0.85,0,0,0-.17.12l-3.4,4.66h0a0.27,0.27,0,0,0,.07.08,0.8,0.8,0,0,0,.3.17,1.52,1.52,0,0,0,.45.1l0.9,0.09c0.56,0,1.38.11,2.51,0.16s2.58,0.13,4.35.16,5.25,0.08,7.7.08,5.92,0,7.7-.08,3.21-.1,4.34-0.16,2-.12,2.52-0.16l0.89-.09a1.54,1.54,0,0,0,.46-0.1,0.75,0.75,0,0,0,.3-0.17,0.21,0.21,0,0,0,.07-0.08h0l-3.4-4.66a0.69,0.69,0,0,0-.18-0.12,2.27,2.27,0,0,0-.3-0.12l-0.37-.06-0.41,0h-6.08a18.84,18.84,0,0,0,.63,2.75l0.21,0.6h-12.78l0.2-.6A20.44,20.44,0,0,0-380.3,120.71Zm29.42-35.59H-398.6a1.34,1.34,0,0,0-1.33,1.35v31.15A1.35,1.35,0,0,0-398.6,119h19a22.57,22.57,0,0,1-.91,4.76H-369a22.89,22.89,0,0,1-.89-4.76h19a1.34,1.34,0,0,0,1.32-1.36V86.47A1.33,1.33,0,0,0-350.88,85.12Zm1.15,32.51a1.16,1.16,0,0,1-1.15,1.17H-398.6a1.16,1.16,0,0,1-1.15-1.17V86.47a1.17,1.17,0,0,1,1.15-1.18h47.72a1.16,1.16,0,0,1,1.15,1.18v31.15Zm-1.3-32h-47.41a1,1,0,0,0-1,1v30.95a1,1,0,0,0,1,1H-351a1,1,0,0,0,1-1V86.58A1,1,0,0,0-351,85.58Zm-0.5,31.28a0.4,0.4,0,0,1-.39.4h-45.63a0.39,0.39,0,0,1-.39-0.4V87.17a0.4,0.4,0,0,1,.39-0.4h45.63a0.4,0.4,0,0,1,.39.4v29.69Z" transform="translate(430.22 324.87)"/><text class="cls-7" transform="translate(127.14 453.76) scale(0.98 1)">Wanting to apply my research <tspan x="0" y="20">findings to a more practical field, I </tspan><tspan x="0" y="40">left the lab to study front-end </tspan><tspan class="cls-6"><tspan x="0" y="60">development and web design.  I </tspan></tspan><tspan x="0" y="80">am passionate about creating </tspan><tspan x="0" y="100">meaningful experiences for users.</tspan></text><text class="cls-1" transform="translate(127.14 417.38) scale(0.98 1)">Web Design</text><path class="cls-2" d="M-14.22-9.59v-2c0-14.94-11.85-27-26.46-27.05h-1.92v-61.73h1.92c14.62,0,26.43-12.11,26.46-27.05h3.85c0,16.45-12.55,29.91-28.39,30.92v54c15.2,1,27.37,13.41,28.33,29H226.41v3.93H-14.22Z" transform="translate(430.22 324.87)"/><ellipse class="cls-2" cx="658.28" cy="313.31" rx="5.94" ry="6.08"/><ellipse class="cls-2" cx="417.92" cy="197.47" rx="5.95" ry="6.08"/><ellipse class="cls-3" cx="389.54" cy="314.31" rx="19.24" ry="19.67"/><path class="cls-4" d="M-46.73-20.8c4.72,0,5.05,5.36,5.05,10,0,4.38,0,10.36-5,10.36S-51.78-6-51.78-11.09C-51.78-15.56-51.4-20.8-46.73-20.8Zm0.05,19.26c3.36,0,3.36-4.83,3.36-9.07s0.05-9.07-3.36-9.07-3.47,4.64-3.47,9.69C-50.14-6.48-50.11-1.54-46.67-1.54Z" transform="translate(430.22 324.87)"/><path class="cls-4" d="M-38.17-6.06c0.13,1.26.58,4.64,3.44,4.64,1.88,0,3.5-1.73,3.5-4.77A5,5,0,0,0-32.4-9.69,4,4,0,0,0-35-10.84c-0.43,0-.9,0-1.06,0v-0.95a3.43,3.43,0,0,0,3.44-1.79,4.9,4.9,0,0,0,.69-2.51,3,3,0,0,0-2.87-3.26c-2.6,0-3.44,2.82-3.44,4.47H-39.7c0.13-3.52,2.6-5.59,4.87-5.56a4.31,4.31,0,0,1,4.39,4.36,4.62,4.62,0,0,1-2.65,4.53v0.05c2.65,0.59,3.55,3.32,3.5,5.28-0.11,3.83-2.3,5.92-5.22,5.92a4.32,4.32,0,0,1-4.07-2.21,9,9,0,0,1-.9-3.54h1.61Z" transform="translate(430.22 324.87)"/><path class="cls-2" d="M345-9.1c0,29.71-23.56,53.8-52.62,53.8l4.49,1.63-1.32,3.81-20.75-7.46,20.75-7.46L296.88,39l-4.49,1.63c26.88,0,48.62-22.28,48.67-49.76h4Z" transform="translate(430.22 324.87)"/><path class="cls-3" d="M289.35,29c-21.43,0-38.8-17.76-38.8-39.66s17.37-39.65,38.8-39.65,38.79,17.75,38.79,39.65S310.77,29,289.35,29Z" transform="translate(430.22 324.87)"/><polygon id="Bar_Graph" class="cls-4" points="743.82 333.29 739.47 330.72 739.47 332.29 737.05 332.29 737.05 297.87 729.08 297.87 729.08 332.29 727.5 332.29 727.5 312.73 719.54 312.73 719.54 332.29 717.97 332.29 717.97 307.15 709.99 307.15 709.99 332.29 708.42 332.29 708.42 315.97 700.45 315.97 700.45 332.29 698.81 332.29 698.81 295.63 700.34 295.63 697.83 291.18 695.32 295.63 696.84 295.63 696.84 334.29 739.47 334.29 739.47 335.86 743.82 333.29"/><text class="cls-7" transform="translate(434.57 336.86) scale(0.98 1)">I worked in a research lab focused <tspan class="cls-6"><tspan x="0" y="20">on visual perception and memory.  </tspan></tspan><tspan x="0" y="40">Using a variety of different </tspan><tspan x="0" y="60">research methods we explored </tspan><tspan x="0" y="80">how people react to visual stimuli.</tspan></text><text class="cls-1" transform="translate(434.57 301.64) scale(0.98 1)">Research Lab Manager</text><path class="cls-2" d="M-315.15-126.31v-3.93H-75.8c1-15.54,13-28,28.17-29v-54c-15.75-1-28.22-14.47-28.22-30.92H-72c0,14.94,11.78,27,26.32,27h1.91v61.74h-1.91C-60.25-155.3-72-143.21-72-128.27v2H-315.15Z" transform="translate(430.22 324.87)"/><ellipse class="cls-2" cx="113.43" cy="196.59" rx="5.91" ry="6.08"/><ellipse class="cls-2" cx="356.28" cy="80.75" rx="5.91" ry="6.08"/><ellipse class="cls-3" cx="386.49" cy="196.59" rx="19.24" ry="19.67"/><path class="cls-4" d="M-49.85-138.45c4.72,0,5.06,5.36,5.06,10,0,4.38,0,10.36-5,10.36s-5.08-5.47-5.08-10.61C-54.9-133.2-54.52-138.45-49.85-138.45Zm0.06,19.27c3.36,0,3.36-4.83,3.36-9.08s0.06-9.07-3.36-9.07-3.47,4.64-3.47,9.69C-53.27-124.13-53.24-119.18-49.79-119.18Z" transform="translate(430.22 324.87)"/><path class="cls-4" d="M-42.61-132.56c0.27-1.54.85-5.53,5-5.53a4.68,4.68,0,0,1,4.94,4.92c0,1.56-.27,3.46-5.11,8.49-2,2.18-2.92,3-3.28,5.06l8.47,0v1.48l-10.3,0c0.31-3.35,1-4.41,4-7.65,3.36-3.57,4.53-5.31,4.53-7.31,0-2.88-2-3.94-3.22-3.94-2.82,0-3.39,3.13-3.64,4.44h-1.47Z" transform="translate(430.22 324.87)"/><path class="cls-2" d="M-430.22-128.84c0,29.71,23.56,53.8,52.63,53.8l-4.49,1.63,1.32,3.81L-360-77.07l-20.74-7.46-1.32,3.81,4.49,1.63c-26.88-.05-48.62-22.28-48.67-49.76h-4Z" transform="translate(430.22 324.87)"/><path class="cls-3" d="M-376.58-90.2c-21.44,0-38.8-17.74-38.8-39.65S-398-169.5-376.6-169.5s38.8,17.76,38.79,39.65S-355.18-90.2-376.58-90.2Z" transform="translate(430.22 324.87)"/><text class="cls-1" transform="translate(127.14 184.17) scale(0.98 1)">Minor in Visual Arts</text><text class="cls-7" transform="translate(127.14 224.35) scale(0.98 1)">On top of studying psychology I <tspan x="0" y="20">also completed a minor in visual </tspan><tspan class="cls-6"><tspan x="0" y="40">arts.  I love design and being </tspan><tspan x="0" y="60">creative.  I attempt to ingrate my </tspan></tspan><tspan x="0" y="80">knowledge of psychology into </tspan><tspan x="0" y="100">everything I design.</tspan></text><text x="430.22" y="324.87"/><text x="430.22" y="324.87"/><text x="430.22" y="324.87"/><text class="cls-8" transform="translate(29.63 212.69)"></text><text class="cls-9" transform="translate(691.85 564.92)"></text></svg>